004 Musala.ufo
<glyph name="parenleft" format="2">
	<advance width="403"/>
	<unicode hex="0028"/>
	<outline>
		<contour>
			<point x="356" y="-81" type="curve"/>
			<point x="373" y="-2.425" type="line"/>
			<point x="272.698" y="30.695"/>
			<point x="205" y="72"/>
			<point x="205" y="396" type="curve" smooth="yes"/>
			<point x="205" y="540"/>
			<point x="205" y="615"/>
			<point x="223" y="663" type="curve"/>
			<point x="250" y="709"/>
			<point x="328.538" y="751"/>
			<point x="359" y="764" type="curve"/>
			<point x="323.389" y="835.266" type="line"/>
			<point x="263.538" y="829.266"/>
			<point x="50" y="732"/>
			<point x="50" y="351" type="curve" smooth="yes"/>
			<point x="50" y="89"/>
			<point x="227.233" y="-76"/>
		</contour>
	</outline>
</glyph>
<glyph name="parenright" format="2">
	<advance width="403"/>
	<unicode hex="0029"/>
	<outline>
		<contour>
			<point x="47" y="-81" type="line"/>
			<point x="175.767" y="-76"/>
			<point x="353" y="89"/>
			<point x="353" y="351" type="curve" smooth="yes"/>
			<point x="353" y="732"/>
			<point x="139.462" y="829.266"/>
			<point x="79.611" y="835.266" type="curve"/>
			<point x="44" y="764" type="line"/>
			<point x="74.462" y="751"/>
			<point x="153" y="709"/>
			<point x="180" y="663" type="curve"/>
			<point x="198" y="615"/>
			<point x="198" y="540"/>
			<point x="198" y="396" type="curve" smooth="yes"/>
			<point x="198" y="72"/>
			<point x="130.302" y="30.695"/>
			<point x="30" y="-2.425" type="curve"/>
		</contour>
	</outline>
</glyph>
<glyph name="four" format="2">
	<advance width="654.14"/>
	<unicode hex="0034"/>
	<outline>
		<contour>
			<point x="113.444" y="206.001" type="line"/>
			<point x="436.843" y="743.078" type="line"/>
			<point x="351.714" y="752.382" type="line"/>
			<point x="304.968" y="715.861" type="line"/>
			<point x="287.144" y="654.803"/>
			<point x="123.824" y="365.038"/>
			<point x="34.998" y="261.637" type="curve"/>
		</contour>
		<contour>
			<point x="560.142" y="198.17" type="curve"/>
			<point x="604.142" y="302.17" type="line"/>
			<point x="495.47574" y="305.36908"/>
			<point x="376.56985" y="303.03154"/>
			<point x="262.07119" y="303.03154" type="curve" smooth="yes"/>
			<point x="221.71777" y="303.03154"/>
			<point x="135.35056" y="292.15237"/>
			<point x="111.92605" y="286.93351" type="curve"/>
			<point x="34.998" y="261.637" type="line"/>
			<point x="93.444" y="204.001" type="line"/>
			<point x="252.112" y="210.778"/>
			<point x="420.299" y="207.842"/>
		</contour>
		<contour>
			<point x="396.569" y="-6.711" type="curve" smooth="yes"/>
			<point x="409.982" y="-6.711"/>
			<point x="477.419" y="4.27"/>
			<point x="485.071" y="6.991" type="curve"/>
			<point x="477.779" y="101.823"/>
			<point x="472.252" y="281.62"/>
			<point x="472.252" y="436.575" type="curve" smooth="yes"/>
			<point x="472.252" y="532.182"/>
			<point x="492.127" y="725.053"/>
			<point x="511.892" y="781.524" type="curve"/>
			<point x="507.038" y="785.509"/>
			<point x="463.28" y="800.446"/>
			<point x="452.364" y="800.366" type="curve" smooth="yes"/>
			<point x="441.714" y="800.288"/>
			<point x="357.572" y="758.496"/>
			<point x="351.714" y="752.382" type="curve"/>
			<point x="352.194" y="6.991" type="line"/>
			<point x="357.12" y="3.063"/>
			<point x="385.909" y="-6.711"/>
		</contour>
	</outline>
</glyph>
<glyph name="six" format="2">
	<advance width="617"/>
	<unicode hex="0036"/>
	<outline>
		<contour>
			<point x="50" y="371" type="curve" smooth="yes"/>
			<point x="50" y="185.126"/>
			<point x="119" y="-12"/>
			<point x="308" y="-12" type="curve" smooth="yes"/>
			<point x="443" y="-12"/>
			<point x="567" y="91"/>
			<point x="567" y="245" type="curve" smooth="yes"/>
			<point x="567" y="432"/>
			<point x="463.99814" y="475.49099"/>
			<point x="340.11538" y="465" type="curve" smooth="yes"/>
			<point x="274.15566" y="459.41421"/>
			<point x="206.24677" y="438.93821"/>
			<point x="174" y="429" type="curve"/>
			<point x="174" y="594.56747"/>
			<point x="231.97168" y="701"/>
			<point x="336.63219" y="701" type="curve" smooth="yes"/>
			<point x="376.63219" y="701"/>
			<point x="424" y="690.72656"/>
			<point x="478" y="656.72656" type="curve"/>
			<point x="483.881" y="665.73575"/>
			<point x="533.935" y="715.05542"/>
			<point x="533.935" y="726.00521" type="curve" smooth="yes"/>
			<point x="533.935" y="733.93563"/>
			<point x="520.5501" y="765.58594"/>
			<point x="508.237" y="780.316" type="curve"/>
			<point x="459.93432" y="795.78358"/>
			<point x="411.5176" y="805.497"/>
			<point x="344.41083" y="805.497" type="curve" smooth="yes"/>
			<point x="124.04625" y="805.497"/>
			<point x="50" y="560.85464"/>
		</contour>
		<contour>
			<point x="222.33815" y="371.47254"/>
			<point x="281.26291" y="384"/>
			<point x="323" y="384" type="curve" smooth="yes"/>
			<point x="402" y="384"/>
			<point x="443" y="353"/>
			<point x="443" y="242" type="curve" smooth="yes"/>
			<point x="443" y="185"/>
			<point x="433" y="129"/>
			<point x="414" y="101" type="curve"/>
			<point x="401" y="91"/>
			<point x="374.1767" y="77"/>
			<point x="316.75482" y="77" type="curve" smooth="yes"/>
			<point x="194.82635" y="77"/>
			<point x="176" y="220.89844"/>
			<point x="176" y="359" type="curve"/>
		</contour>
	</outline>
</glyph>
<glyph name="seven" format="2">
	<advance width="580.12"/>
	<unicode hex="0037"/>
	<outline>
		<contour>
			<point x="119.742" y="6.991" type="curve"/>
			<point x="124.668" y="3.063"/>
			<point x="162.457" y="-6.711"/>
			<point x="173.117" y="-6.711" type="curve" smooth="yes"/>
			<point x="186.53" y="-6.711"/>
			<point x="268.772" y="5.063"/>
			<point x="276.424" y="7.784" type="curve"/>
			<point x="329.021" y="208.599"/>
			<point x="464.796" y="599.139"/>
			<point x="525.622" y="767.245" type="curve"/>
			<point x="475.846" y="777.243" type="line"/>
			<point x="464.44" y="752.823"/>
			<point x="389.565" y="619.985"/>
			<point x="377.51" y="596.711" type="curve" smooth="yes"/>
			<point x="364.026" y="570.675"/>
			<point x="178.103" y="205.023"/>
		</contour>
		<contour>
			<point x="540.121" y="797.152" type="line"/>
			<point x="361.079" y="786.152"/>
			<point x="249.037" y="789.152"/>
			<point x="89.995" y="800.152" type="curve"/>
			<point x="39.995" y="696.152" type="line"/>
			<point x="222.165" y="690.789"/>
			<point x="455.305" y="693.941"/>
			<point x="501.161" y="703.941" type="curve"/>
		</contour>
	</outline>
</glyph>
<glyph name="eight" format="2">
	<advance width="611.81"/>
	<unicode hex="0038"/>
	<outline>
		<contour>
			<point x="312.654" y="-11" type="curve" smooth="yes"/>
			<point x="469.269" y="-11"/>
			<point x="561.813" y="105.034"/>
			<point x="561.813" y="217.281" type="curve" smooth="yes"/>
			<point x="561.813" y="317.69531"/>
			<point x="532.916" y="362.453"/>
			<point x="419.788" y="432.758" type="curve"/>
			<point x="441.869" y="443.761"/>
			<point x="540.911" y="506.526"/>
			<point x="540.911" y="597" type="curve" smooth="yes"/>
			<point x="540.911" y="702.255"/>
			<point x="452.884" y="803.039"/>
			<point x="312.971" y="803.039" type="curve" smooth="yes"/>
			<point x="197.214" y="803.039"/>
			<point x="90.847" y="715.96"/>
			<point x="90.847" y="608" type="curve" smooth="yes"/>
			<point x="90.847" y="525.28705"/>
			<point x="156.931" y="461.695"/>
			<point x="195.149" y="435.758" type="curve"/>
			<point x="137.666" y="399.066"/>
			<point x="50.003" y="330.478"/>
			<point x="50.003" y="207.12" type="curve" smooth="yes"/>
			<point x="50.003" y="92.773"/>
			<point x="149.093" y="-11"/>
		</contour>
		<contour>
			<point x="306.901" y="77" type="curve" smooth="yes"/>
			<point x="202.917" y="77"/>
			<point x="172.434" y="162.625"/>
			<point x="172.434" y="217.281" type="curve" smooth="yes"/>
			<point x="172.434" y="306.789"/>
			<point x="214.99156" y="369.57031"/>
			<point x="250.865" y="395.576" type="curve"/>
			<point x="268.11" y="386.816"/>
			<point x="396.501" y="323.478"/>
			<point x="415.729" y="308.281" type="curve"/>
			<point x="426.41" y="293.644"/>
			<point x="440.119" y="256.108"/>
			<point x="440.119" y="216.11" type="curve" smooth="yes"/>
			<point x="440.119" y="183.795"/>
			<point x="432.66" y="151.425"/>
			<point x="429.893" y="139.672" type="curve"/>
			<point x="412.788" y="117.991"/>
			<point x="381.996" y="77"/>
		</contour>
		<contour>
			<point x="368.347" y="462.841" type="curve"/>
			<point x="344.223" y="476.228"/>
			<point x="309.98137" y="491.54313"/>
			<point x="278.92125" y="508.526" type="curve" smooth="yes"/>
			<point x="248.25804" y="525.29185"/>
			<point x="206.149" y="578.477"/>
			<point x="206.149" y="629.51562" type="curve" smooth="yes"/>
			<point x="206.149" y="668.619"/>
			<point x="246.29625" y="708"/>
			<point x="311.81" y="708" type="curve" smooth="yes"/>
			<point x="387.944" y="708"/>
			<point x="426.276" y="671.009"/>
			<point x="426.276" y="599.525" type="curve" smooth="yes"/>
			<point x="426.276" y="554.348"/>
			<point x="396.671" y="488.068"/>
		</contour>
	</outline>
</glyph>
<glyph name="colon" format="2">
	<advance width="231.27"/>
	<unicode hex="003A"/>
	<outline>
		<contour>
			<point x="198.976" y="381.085" type="curve" smooth="yes"/>
			<point x="198.976" y="335.661"/>
			<point x="162.176" y="303.838"/>
			<point x="115.856" y="303.838" type="curve" smooth="yes"/>
			<point x="69.95" y="303.838"/>
			<point x="32.735" y="335.661"/>
			<point x="32.735" y="381.085" type="curve" smooth="yes"/>
			<point x="32.735" y="426.509"/>
			<point x="69.95" y="458.331"/>
			<point x="115.856" y="458.331" type="curve" smooth="yes"/>
			<point x="161.762" y="458.331"/>
			<point x="198.976" y="426.509"/>
		</contour>
		<contour>
			<point x="198.976" y="66.247" type="curve" smooth="yes"/>
			<point x="198.976" y="20.823"/>
			<point x="162.176" y="-11"/>
			<point x="115.856" y="-11" type="curve" smooth="yes"/>
			<point x="69.95" y="-11"/>
			<point x="32.735" y="20.823"/>
			<point x="32.735" y="66.247" type="curve" smooth="yes"/>
			<point x="32.735" y="111.671"/>
			<point x="69.95" y="143.493"/>
			<point x="115.856" y="143.493" type="curve" smooth="yes"/>
			<point x="161.762" y="143.493"/>
			<point x="198.976" y="111.671"/>
		</contour>
	</outline>
</glyph>
<glyph name="semicolon" format="2">
	<advance width="249.02"/>
	<unicode hex="003B"/>
	<outline>
		<contour>
			<point x="39.996" y="-163.258" type="line"/>
			<point x="81.618" y="-102.751"/>
			<point x="81.618" y="0"/>
			<point x="64.231" y="92.242" type="curve"/>
			<point x="77.881" y="110.324"/>
			<point x="91.176" y="128.406"/>
			<point x="101.624" y="136.113" type="curve"/>
			<point x="114.128" y="141.46"/>
			<point x="175.435" y="147.724"/>
			<point x="206.703" y="136.113" type="curve"/>
			<point x="208.78" y="117.062"/>
			<point x="229.555" y="-41.492"/>
			<point x="92.66" y="-205.773" type="curve"/>
		</contour>
		<contour>
			<point x="216.97584" y="381.085" type="curve" smooth="yes"/>
			<point x="216.97584" y="335.661"/>
			<point x="180.17584" y="303.838"/>
			<point x="133.85584" y="303.838" type="curve" smooth="yes"/>
			<point x="87.94984" y="303.838"/>
			<point x="50.73484" y="335.661"/>
			<point x="50.73484" y="381.085" type="curve" smooth="yes"/>
			<point x="50.73484" y="426.509"/>
			<point x="87.94984" y="458.331"/>
			<point x="133.85584" y="458.331" type="curve" smooth="yes"/>
			<point x="179.76184" y="458.331"/>
			<point x="216.97584" y="426.509"/>
		</contour>
	</outline>
</glyph>
<glyph name="question" format="2">
	<advance width="529.29"/>
	<unicode hex="003F"/>
	<outline>
		<contour>
			<point x="319.928" y="208.344" type="curve"/>
			<point x="298.067" y="332.464" type="line"/>
			<point x="360.668" y="363.74"/>
			<point x="445.21" y="451.509"/>
			<point x="466.17" y="481.255" type="curve"/>
			<point x="478.271" y="511.195"/>
			<point x="483.015" y="589.656"/>
			<point x="476.062" y="651.976" type="curve"/>
			<point x="423.263" y="739.746"/>
			<point x="390.788" y="771.253"/>
			<point x="352.198" y="785.621" type="curve"/>
			<point x="287.337" y="805.784"/>
			<point x="169.765" y="781.431"/>
			<point x="166.135" y="777.195" type="curve"/>
			<point x="109.6" y="747.301"/>
			<point x="54.349" y="694.196"/>
			<point x="40.002" y="666.819" type="curve"/>
			<point x="154.006" y="616.24" type="line"/>
			<point x="176.5" y="679.209"/>
			<point x="205.399" y="727.483"/>
			<point x="227.878" y="730.317" type="curve"/>
			<point x="250.291" y="731.085"/>
			<point x="275.727" y="730.317"/>
			<point x="291.518" y="724.988" type="curve"/>
			<point x="328.999" y="691.428"/>
			<point x="343.987" y="651.6"/>
			<point x="351.599" y="609.571" type="curve"/>
			<point x="355.912" y="575.911"/>
			<point x="345.369" y="560.242"/>
			<point x="335.013" y="528.676" type="curve" smooth="yes"/>
			<point x="313.787" y="463.975"/>
			<point x="251.816" y="420.508"/>
			<point x="193.073" y="369.967" type="curve"/>
			<point x="184.58967" y="324.78467"/>
			<point x="179.623" y="248.06786"/>
			<point x="179.623" y="205.42" type="curve"/>
			<point x="198.613" y="193.737"/>
			<point x="218.745" y="184.383"/>
			<point x="229.291" y="182.518" type="curve" smooth="yes"/>
			<point x="239.735" y="180.67"/>
			<point x="312.95" y="204.1"/>
		</contour>
		<contour>
			<point x="335.365" y="27.353" type="curve" smooth="yes"/>
			<point x="335.365" y="-18.071"/>
			<point x="298.565" y="-49.894"/>
			<point x="252.245" y="-49.894" type="curve" smooth="yes"/>
			<point x="206.339" y="-49.894"/>
			<point x="169.124" y="-18.071"/>
			<point x="169.124" y="27.353" type="curve" smooth="yes"/>
			<point x="169.124" y="72.777"/>
			<point x="206.339" y="104.599"/>
			<point x="252.245" y="104.599" type="curve" smooth="yes"/>
			<point x="298.151" y="104.599"/>
			<point x="335.365" y="72.777"/>
		</contour>
	</outline>
</glyph>
<glyph name="A" format="2">
	<advance width="638.11"/>
	<unicode hex="0041"/>
	<outline>
		<contour>
			<point x="170.553" y="0" type="line"/>
			<point x="202.445" y="190.501"/>
			<point x="280.304" y="546.979"/>
			<point x="310.636" y="663.435" type="curve"/>
			<point x="334.786" y="663.435" type="line"/>
			<point x="361.424" y="548.288"/>
			<point x="410.407" y="260.947"/>
			<point x="460.489" y="0.719" type="curve"/>
			<point x="615.114" y="0" type="line"/>
			<point x="609.665" y="14.99"/>
			<point x="579.722" y="116.979"/>
			<point x="576.496" y="130.818" type="curve"/>
			<point x="466.827" y="632.85" type="line" smooth="yes"/>
			<point x="458.71575" y="669.98087"/>
			<point x="446.09046" y="749.28419"/>
			<point x="441.85291" y="780" type="curve"/>
			<point x="427.0658" y="785.08468"/>
			<point x="362.81781" y="800.0727"/>
			<point x="353.34837" y="800.0727" type="curve"/>
			<point x="333.08348" y="800.0727"/>
			<point x="219.61475" y="755.66254"/>
			<point x="204.60784" y="745.45969" type="curve"/>
			<point x="190.535" y="647.218" type="line"/>
			<point x="64.092" y="139.785" type="line"/>
			<point x="60.084" y="120.868"/>
			<point x="28.632" y="14.99"/>
			<point x="23" y="0.719" type="curve"/>
		</contour>
		<contour>
			<point x="164.56" y="234" type="line"/>
			<point x="474.56" y="234" type="line"/>
			<point x="474.56" y="328" type="line"/>
			<point x="384.56" y="321"/>
			<point x="254.56" y="320"/>
			<point x="164.56" y="328" type="curve"/>
		</contour>
	</outline>
</glyph>
<glyph name="C" format="2">
	<advance width="582.26"/>
	<unicode hex="0043"/>
	<outline>
		<contour>
			<point x="39.996" y="365" type="curve" smooth="yes"/>
			<point x="39.996" y="631.38397"/>
			<point x="201.09438" y="805.46198"/>
			<point x="369.526" y="805.46198" type="curve" smooth="yes"/>
			<point x="418.79901" y="805.46198"/>
			<point x="469.86099" y="794.60101"/>
			<point x="491.789" y="785.47803" type="curve"/>
			<point x="499.16803" y="775.59802"/>
			<point x="517.867" y="741.56097"/>
			<point x="517.867" y="733.68298" type="curve" smooth="yes"/>
			<point x="517.867" y="725.68298"/>
			<point x="469.42499" y="660.86603"/>
			<point x="461.17401" y="652.57098" type="curve"/>
			<point x="439.061" y="661.86603"/>
			<point x="404.86734" y="683.53497"/>
			<point x="346.57401" y="683.53497" type="curve" smooth="yes"/>
			<point x="278.8967" y="683.53497"/>
			<point x="224.54707" y="618.34216"/>
			<point x="207.81599" y="592.52002" type="curve"/>
			<point x="199.55499" y="577.44098"/>
			<point x="181.996" y="526.09003"/>
			<point x="181.996" y="393.491" type="curve" smooth="yes"/>
			<point x="181.996" y="222.957"/>
			<point x="219.369" y="101.339"/>
			<point x="339.327" y="101.339" type="curve" smooth="yes"/>
			<point x="401.672" y="101.339"/>
			<point x="464.96301" y="133.17"/>
			<point x="496.26703" y="148.17" type="curve"/>
			<point x="542.26501" y="76" type="line"/>
			<point x="493.69" y="32.279"/>
			<point x="420.0397" y="-11"/>
			<point x="323.84" y="-11" type="curve" smooth="yes"/>
			<point x="206.69299" y="-11"/>
			<point x="39.996" y="92"/>
		</contour>
	</outline>
</glyph>
<glyph name="D" format="2">
	<advance width="620"/>
	<unicode hex="0044"/>
	<outline>
		<contour>
			<point x="53" y="0" type="curve"/>
			<point x="237" y="0" type="line"/>
			<point x="330.16199" y="0"/>
			<point x="401.58301" y="18.163"/>
			<point x="435.86499" y="42.267" type="curve" smooth="yes"/>
			<point x="519.31702" y="100.943"/>
			<point x="580" y="305.28699"/>
			<point x="580" y="448.508" type="curve" smooth="yes"/>
			<point x="580" y="653.508"/>
			<point x="478.27802" y="751.29999"/>
			<point x="418.88599" y="775.12799" type="curve" smooth="yes"/>
			<point x="368.728" y="795.25098"/>
			<point x="269.29999" y="801.15198"/>
			<point x="207.71899" y="801.15198" type="curve" smooth="yes"/>
			<point x="174.22" y="801.15198"/>
			<point x="99.24" y="790.74402"/>
			<point x="55" y="784.03998" type="curve"/>
			<point x="61.778" y="730.04098"/>
			<point x="65.495" y="645.948"/>
			<point x="70.045" y="588.414" type="curve"/>
			<point x="70.055" y="153.611" type="line"/>
			<point x="70.041" y="121.307"/>
			<point x="58.648" y="41.229"/>
		</contour>
		<contour>
			<point x="205" y="79.5" type="line"/>
			<point x="205" y="724.5" type="line"/>
			<point x="183.58299" y="693.54199" type="line"/>
			<point x="207.315" y="695.94598"/>
			<point x="251.75999" y="701.271"/>
			<point x="288.543" y="701.271" type="curve" smooth="yes"/>
			<point x="356.427" y="701.271"/>
			<point x="438" y="672.409"/>
			<point x="438" y="463.66" type="curve" smooth="yes"/>
			<point x="438" y="275.01501"/>
			<point x="405.44501" y="97.163"/>
			<point x="283.44501" y="96.163" type="curve" smooth="yes"/>
			<point x="245.44701" y="95.849"/>
			<point x="183" y="102.5"/>
			<point x="182" y="103.5" type="curve"/>
		</contour>
	</outline>
</glyph>
<glyph name="G" format="2">
	<advance width="633.02"/>
	<unicode hex="0047"/>
	<outline>
		<contour>
			<point x="314" y="301" type="line"/>
			<point x="314" y="395" type="line"/>
			<point x="399.465" y="388.32999"/>
			<point x="525.42603" y="389.155"/>
			<point x="573.133" y="395" type="curve"/>
			<point x="573.133" y="301" type="line"/>
		</contour>
		<contour>
			<point x="40.996" y="365" type="curve" smooth="yes"/>
			<point x="40.996" y="636.38397"/>
			<point x="202.09399" y="805.46198"/>
			<point x="375.526" y="805.46198" type="curve" smooth="yes"/>
			<point x="434.79901" y="805.46198"/>
			<point x="475.86099" y="794.60101"/>
			<point x="497.789" y="785.47803" type="curve"/>
			<point x="505.168" y="775.59802"/>
			<point x="523.867" y="741.56097"/>
			<point x="523.867" y="733.68298" type="curve" smooth="yes"/>
			<point x="523.867" y="725.68298"/>
			<point x="475.42499" y="660.86603"/>
			<point x="467.17401" y="652.57098" type="curve"/>
			<point x="445.061" y="661.86603"/>
			<point x="408" y="683.53497"/>
			<point x="339.96701" y="683.53497" type="curve" smooth="yes"/>
			<point x="265.72" y="683.53497"/>
			<point x="215.383" y="611.224"/>
			<point x="205.81599" y="595.52002" type="curve"/>
			<point x="198.55499" y="580.44098"/>
			<point x="183.996" y="531.09003"/>
			<point x="183.996" y="393.491" type="curve" smooth="yes"/>
			<point x="183.996" y="222.957"/>
			<point x="220.2197" y="103.67297"/>
			<point x="351" y="102" type="curve" smooth="yes"/>
			<point x="402.672" y="101.339"/>
			<point x="440.03601" y="120.852"/>
			<point x="460.05099" y="144.616" type="curve"/>
			<point x="462.79001" y="224.026"/>
			<point x="457.13599" y="289.29401"/>
			<point x="452.133" y="380.17401" type="curve"/>
			<point x="573.133" y="301" type="line"/>
			<point x="573.133" y="139.812" type="line"/>
			<point x="568.133" y="120.695"/>
			<point x="541.40802" y="73.385"/>
			<point x="533.46503" y="63.721" type="curve"/>
			<point x="520.76202" y="52.547"/>
			<point x="435.80609" y="-11"/>
			<point x="337.95499" y="-11" type="curve" smooth="yes"/>
			<point x="169.67209" y="-11"/>
			<point x="40.996" y="124.284"/>
		</contour>
	</outline>
</glyph>
<glyph name="H" format="2">
	<advance width="645.04"/>
	<unicode hex="0048"/>
	<guideline x="27" y="640" angle="0"/>
	<guideline x="55" y="0" angle="0"/>
	<guideline x="182" y="0" angle="0"/>
	<guideline x="27" y="688" angle="0"/>
	<guideline x="70" y="0" angle="0"/>
	<outline>
		<contour>
			<point x="54" y="0" type="curve"/>
			<point x="202" y="0" type="line"/>
			<point x="201.616" y="789.373" type="line"/>
			<point x="196.174" y="791.694"/>
			<point x="160.345" y="800.453"/>
			<point x="149.429" y="800.373" type="curve" smooth="yes"/>
			<point x="138.779" y="800.295"/>
			<point x="62.879" y="783.28"/>
			<point x="51.143" y="779.471" type="curve"/>
			<point x="57.921" y="725.472"/>
			<point x="62.495" y="645.948"/>
			<point x="67.045" y="588.414" type="curve"/>
			<point x="67.055" y="153.611" type="line"/>
			<point x="67.055" y="128.688"/>
			<point x="59.648" y="41.229"/>
		</contour>
		<contour>
			<point x="166.143" y="341" type="line"/>
			<point x="476.143" y="341" type="line"/>
			<point x="476.143" y="435" type="line"/>
			<point x="385.99" y="427.602"/>
			<point x="256.27" y="426.622"/>
			<point x="166.143" y="435" type="curve"/>
		</contour>
		<contour>
			<point x="591.06" y="0" type="line"/>
			<point x="585.412" y="41.229"/>
			<point x="578.005" y="128.688"/>
			<point x="578.005" y="153.611" type="curve"/>
			<point x="578.015" y="588.414" type="line"/>
			<point x="582.565" y="645.948"/>
			<point x="587.139" y="735.472"/>
			<point x="593.917" y="789.471" type="curve"/>
			<point x="588.21579" y="791.694"/>
			<point x="552.281" y="800.295"/>
			<point x="541.631" y="800.373" type="curve" smooth="yes"/>
			<point x="530.715" y="800.453"/>
			<point x="448.886" y="781.694"/>
			<point x="443.444" y="779.373" type="curve"/>
			<point x="443.06" y="0" type="line"/>
		</contour>
	</outline>
</glyph>
<glyph name="K" format="2">
	<advance width="659.76"/>
	<unicode hex="004B"/>
	<outline>
		<contour>
			<point x="199.36" y="249" type="line"/>
			<point x="613.54385" y="760.34054" type="line"/>
			<point x="602.91985" y="772.91454"/>
			<point x="573.98585" y="799.77754"/>
			<point x="565.95385" y="799.77754" type="curve" smooth="yes"/>
			<point x="557.64385" y="799.77754"/>
			<point x="469.11085" y="792.77754"/>
			<point x="455.11085" y="788.77754" type="curve"/>
			<point x="420.12719" y="729.72656"/>
			<point x="316.13281" y="563.37031"/>
			<point x="286.386" y="523.752" type="curve"/>
			<point x="148.754" y="320.652" type="line"/>
		</contour>
		<contour>
			<point x="63.994" y="0" type="curve"/>
			<point x="211.76" y="0" type="line"/>
			<point x="211.76" y="789" type="line"/>
			<point x="205.76" y="792"/>
			<point x="169.76" y="800"/>
			<point x="158.76" y="800" type="curve" smooth="yes"/>
			<point x="148.76" y="800"/>
			<point x="73.137" y="783.471"/>
			<point x="61.137" y="779.471" type="curve"/>
			<point x="67.915" y="725.472"/>
			<point x="72.489" y="645.948"/>
			<point x="77.039" y="588.414" type="curve"/>
			<point x="77.049" y="153.611" type="line"/>
			<point x="77.049" y="128.688"/>
			<point x="69.642" y="41.229"/>
		</contour>
		<contour>
			<point x="461.76" y="0" type="line"/>
			<point x="629.76" y="0" type="line"/>
			<point x="595.12735" y="47.19847"/>
			<point x="557.51675" y="98.35839"/>
			<point x="527.80895" y="143.79996" type="curve"/>
			<point x="410.10885" y="354.88481" type="line"/>
			<point x="348.639" y="453.184" type="line"/>
			<point x="263.76" y="365.07" type="line"/>
		</contour>
	</outline>
</glyph>
<glyph name="L" format="2">
	<advance width="532.63"/>
	<unicode hex="004C"/>
	<outline>
		<contour>
			<point x="54" y="0" type="curve"/>
			<point x="492.63" y="0" type="line"/>
			<point x="492.63" y="108" type="line"/>
			<point x="435.63" y="100"/>
			<point x="315.63" y="92"/>
			<point x="178.63" y="92" type="curve"/>
			<point x="201.63" y="80" type="line"/>
			<point x="201.348" y="789.373" type="line"/>
			<point x="195.906" y="791.694"/>
			<point x="160.077" y="800.453"/>
			<point x="149.161" y="800.373" type="curve" smooth="yes"/>
			<point x="138.511" y="800.295"/>
			<point x="62.879" y="783.28"/>
			<point x="51.143" y="779.471" type="curve"/>
			<point x="57.921" y="725.472"/>
			<point x="62.495" y="645.948"/>
			<point x="67.045" y="588.414" type="curve"/>
			<point x="67.055" y="153.611" type="line"/>
			<point x="67.055" y="128.688"/>
			<point x="59.648" y="41.229"/>
		</contour>
	</outline>
</glyph>
<glyph name="N" format="2">
	<advance width="642"/>
	<unicode hex="004E"/>
	<outline>
		<contour>
			<point x="586.82332" y="1" type="line"/>
			<point x="581.17532" y="42.229"/>
			<point x="576.76732" y="128.688"/>
			<point x="576.76732" y="153.611" type="curve"/>
			<point x="576.77732" y="588.414" type="line"/>
			<point x="581.32732" y="645.948"/>
			<point x="589.226" y="737.482"/>
			<point x="596.004" y="791.481" type="curve"/>
			<point x="591.15" y="793.055"/>
			<point x="565.322" y="800.44"/>
			<point x="554.405" y="800.373" type="curve" smooth="yes"/>
			<point x="541.755" y="800.295"/>
			<point x="487.168" y="788.175"/>
			<point x="480.126" y="786.061" type="curve"/>
			<point x="481" y="191" type="line"/>
			<point x="456.404" y="267.148" type="line"/>
			<point x="379.606" y="403.922"/>
			<point x="226.575" y="795.317"/>
			<point x="226.575" y="795.317" type="curve"/>
			<point x="217.457" y="795.878"/>
			<point x="147.843" y="800"/>
			<point x="136" y="800" type="curve" smooth="yes"/>
			<point x="129.491" y="800"/>
			<point x="61.448" y="783.093"/>
			<point x="48.143" y="779.471" type="curve"/>
			<point x="54.921" y="725.472"/>
			<point x="59.495" y="645.948"/>
			<point x="64.045" y="588.414" type="curve"/>
			<point x="64.055" y="153.611" type="line"/>
			<point x="64.055" y="128.688"/>
			<point x="56.648" y="42.229"/>
			<point x="51" y="1" type="curve"/>
			<point x="160" y="1" type="line"/>
			<point x="161" y="622" type="line"/>
			<point x="185.502" y="546.234" type="line"/>
			<point x="422" y="1" type="line"/>
		</contour>
	</outline>
</glyph>
<glyph name="P" format="2">
	<advance width="588.7"/>
	<unicode hex="0050"/>
	<guideline x="7" y="0" angle="0"/>
	<guideline x="-24" y="535" angle="0"/>
	<outline>
		<contour>
			<point x="64" y="0" type="curve"/>
			<point x="212" y="0" type="line"/>
			<point x="212" y="721.65802" type="line"/>
			<point x="188.58299" y="695.54199" type="line"/>
			<point x="205.315" y="696.94598"/>
			<point x="254.125" y="701.271"/>
			<point x="288.59201" y="701.271" type="curve" smooth="yes"/>
			<point x="379.724" y="701.271"/>
			<point x="417.01801" y="633.948"/>
			<point x="417.01801" y="541" type="curve" smooth="yes"/>
			<point x="417.01801" y="380.76001"/>
			<point x="389.10901" y="329.13699"/>
			<point x="266.879" y="329.13699" type="curve" smooth="yes"/>
			<point x="240.515" y="329.13699"/>
			<point x="202.832" y="330.715"/>
			<point x="182.22301" y="332.80701" type="curve"/>
			<point x="149.536" y="271.26501" type="line"/>
			<point x="186.52699" y="260.62799"/>
			<point x="309.97501" y="235.024"/>
			<point x="356.93799" y="235.024" type="curve" smooth="yes"/>
			<point x="442.638" y="235.024"/>
			<point x="558.70001" y="336.99301"/>
			<point x="558.70001" y="542.13202" type="curve" smooth="yes"/>
			<point x="558.70001" y="645.79199"/>
			<point x="484.44501" y="765.146"/>
			<point x="424.16" y="781.12799" type="curve" smooth="yes"/>
			<point x="372.228" y="794.89697"/>
			<point x="313.013" y="801.15198"/>
			<point x="209.71899" y="801.15198" type="curve" smooth="yes"/>
			<point x="176.22" y="801.15198"/>
			<point x="105.383" y="790.17011"/>
			<point x="61.143" y="783.46607" type="curve"/>
			<point x="67.921" y="729.46707"/>
			<point x="72.495" y="645.948"/>
			<point x="77.045" y="588.414" type="curve"/>
			<point x="77.055" y="153.611" type="line"/>
			<point x="77.055" y="128.688"/>
			<point x="69.648" y="41.229"/>
		</contour>
	</outline>
</glyph>
<glyph name="T" format="2">
	<advance width="519.78"/>
	<unicode hex="0054"/>
	<guideline x="346.23" y="701.98" angle="0"/>
	<outline>
		<contour>
			<point x="0.003" y="800.471" type="line"/>
			<point x="0.003" y="701.471" type="line"/>
			<point x="81.497" y="705.44"/>
			<point x="205.99" y="707.41"/>
			<point x="264.484" y="707.379" type="curve" smooth="yes"/>
			<point x="319.916" y="707.35"/>
			<point x="441.348" y="705.44"/>
			<point x="519.779" y="701.471" type="curve"/>
			<point x="519.779" y="800.471" type="line"/>
		</contour>
		<contour>
			<point x="189.225" y="749.3279" type="line"/>
			<point x="195.003" y="699.3289"/>
			<point x="195.34942" y="638.31518"/>
			<point x="197.27" y="588.414" type="curve"/>
			<point x="197.28" y="153.611" type="line"/>
			<point x="197.28" y="128.688"/>
			<point x="189.873" y="41.229"/>
			<point x="184.225" y="0" type="curve"/>
			<point x="334" y="0" type="line"/>
			<point x="333.616" y="745.394" type="line"/>
		</contour>
	</outline>
</glyph>
<glyph name="U" format="2">
	<advance width="625.83"/>
	<unicode hex="0055"/>
	<outline>
		<contour>
			<point x="225.09" y="-11" type="curve" smooth="yes"/>
			<point x="272.159" y="-11"/>
			<point x="467.003" y="108"/>
			<point x="484.176" y="120.799" type="curve"/>
			<point x="457.904" y="172.646" type="line"/>
			<point x="451.003" y="164.432"/>
			<point x="303.86" y="101"/>
			<point x="256.979" y="101" type="curve" smooth="yes"/>
			<point x="227.547" y="101"/>
			<point x="200.147" y="131.879"/>
			<point x="200.16" y="147" type="curve" smooth="yes"/>
			<point x="200.67" y="788.875" type="line"/>
			<point x="196.816" y="791.449"/>
			<point x="158.709" y="800.44"/>
			<point x="147.792" y="800.373" type="curve" smooth="yes"/>
			<point x="135.142" y="800.295"/>
			<point x="57.044" y="781.585"/>
			<point x="50.002" y="779.471" type="curve"/>
			<point x="56.78" y="725.472"/>
			<point x="61.354" y="645.948"/>
			<point x="65.904" y="588.414" type="curve"/>
			<point x="65.914" y="199.43104" type="line"/>
			<point x="58.16" y="87" type="line"/>
			<point x="58.16" y="75.79667"/>
			<point x="91.317" y="15.067"/>
			<point x="100.09" y="9" type="curve" smooth="yes"/>
			<point x="108.657" y="3.075"/>
			<point x="205.552" y="-11"/>
		</contour>
		<contour>
			<point x="572.052" y="0" type="line"/>
			<point x="566.404" y="41.229"/>
			<point x="558.997" y="128.688"/>
			<point x="558.997" y="153.611" type="curve"/>
			<point x="559.007" y="588.414" type="line"/>
			<point x="563.557" y="645.948"/>
			<point x="569.049" y="731.71983"/>
			<point x="575.827" y="785.71883" type="curve"/>
			<point x="571.973" y="788.29283"/>
			<point x="531.102" y="800.44"/>
			<point x="520.185" y="800.373" type="curve" smooth="yes"/>
			<point x="507.535" y="800.295"/>
			<point x="431.685" y="783.069"/>
			<point x="423.827" y="780.955" type="curve"/>
			<point x="424.164" y="0.08" type="line"/>
		</contour>
	</outline>
</glyph>
<glyph name="W" format="2">
	<advance width="937.84"/>
	<unicode hex="0057"/>
	<outline>
		<contour>
			<point x="748.813" y="780.955" type="curve"/>
			<point x="767.802" y="709.33"/>
			<point x="759.016" y="578.844"/>
			<point x="759.016" y="404.828" type="curve" smooth="yes"/>
			<point x="759.016" y="271.416"/>
			<point x="753.805" y="183.004"/>
			<point x="739.019" y="124.49" type="curve"/>
			<point x="718.213" y="114.257"/>
			<point x="674.96" y="100.759"/>
			<point x="654.813" y="100.759" type="curve" smooth="yes"/>
			<point x="642.258" y="100.759"/>
			<point x="582.9" y="134.273"/>
			<point x="519.926" y="225.168" type="curve"/>
			<point x="441.629" y="128.689" type="line"/>
			<point x="497.332" y="63.853"/>
			<point x="622.342" y="-10.806"/>
			<point x="650.21" y="-10.806" type="curve" smooth="yes"/>
			<point x="672.093" y="-10.806"/>
			<point x="767.683" y="51.958"/>
			<point x="807.298" y="90.965" type="curve"/>
			<point x="846.452" y="121.835"/>
			<point x="872.918" y="154.503"/>
			<point x="878.878" y="171.803" type="curve"/>
			<point x="884.94152" y="197.77731"/>
			<point x="896.51353" y="303.46398"/>
			<point x="896.51353" y="356.12798" type="curve"/>
			<point x="901.85544" y="620.59621" type="line"/>
			<point x="901.85544" y="673.91676"/>
			<point x="909.60463" y="737.47626"/>
			<point x="912.432" y="789.373" type="curve"/>
			<point x="907.01" y="791.694"/>
			<point x="866.257" y="800.453"/>
			<point x="855.341" y="800.373" type="curve" smooth="yes"/>
			<point x="844.69" y="800.295"/>
			<point x="760.583" y="784.764"/>
		</contour>
		<contour>
			<point x="394.49" y="780.955" type="curve"/>
			<point x="405.479" y="729.33"/>
			<point x="407.693" y="576.93087"/>
			<point x="407.693" y="472.91487" type="curve" smooth="yes"/>
			<point x="407.693" y="359.50287"/>
			<point x="403.482" y="181.004"/>
			<point x="388.696" y="122.49" type="curve"/>
			<point x="367.89" y="112.257"/>
			<point x="336.637" y="100.759"/>
			<point x="312.49" y="100.759" type="curve" smooth="yes"/>
			<point x="291.087" y="100.759"/>
			<point x="197.7563" y="178.85967"/>
			<point x="197.331" y="198.354" type="curve" smooth="yes"/>
			<point x="184.546" y="789.373" type="line"/>
			<point x="179.104" y="791.694"/>
			<point x="143.275" y="800.453"/>
			<point x="132.359" y="800.373" type="curve" smooth="yes"/>
			<point x="121.709" y="800.295"/>
			<point x="40.737" y="784.764"/>
			<point x="29.001" y="780.955" type="curve"/>
			<point x="35.23973" y="758.61284"/>
			<point x="42.59481" y="670.86608"/>
			<point x="46.24274" y="613.78881" type="curve"/>
			<point x="54.17517" y="369.91603" type="line"/>
			<point x="59.68617" y="283.63104"/>
			<point x="70.53261" y="164.77098"/>
			<point x="84.306" y="138.689" type="curve"/>
			<point x="130.009" y="73.853"/>
			<point x="280.019" y="-10.806"/>
			<point x="306.887" y="-10.806" type="curve" smooth="yes"/>
			<point x="328.77" y="-10.806"/>
			<point x="416.36" y="51.958"/>
			<point x="459.975" y="90.965" type="curve"/>
			<point x="503.129" y="121.835"/>
			<point x="530.731" y="155.912"/>
			<point x="535.692" y="173.212" type="curve"/>
			<point x="539.692" y="190.09"/>
			<point x="545.071" y="185.93635"/>
			<point x="545.071" y="358.41635" type="curve"/>
			<point x="548.22215" y="626.26469" type="line"/>
			<point x="548.98752" y="689.28414"/>
			<point x="555.37778" y="733.22093"/>
			<point x="556.109" y="789.373" type="curve"/>
			<point x="550.687" y="791.694"/>
			<point x="511.934" y="800.453"/>
			<point x="501.018" y="800.373" type="curve" smooth="yes"/>
			<point x="490.367" y="800.295"/>
			<point x="419.26" y="788.764"/>
		</contour>
	</outline>
</glyph>
<glyph name="b" format="2">
	<advance width="575"/>
	<unicode hex="0062"/>
	<guideline x="46.31" y="329" angle="0"/>
	<guideline x="46.31" y="485" angle="0"/>
	<guideline x="46.31" y="83" angle="0"/>
	<outline>
		<contour>
			<point x="34.999" y="783.753" type="curve"/>
			<point x="44.412" y="752.292"/>
			<point x="59.472" y="659.33"/>
			<point x="61.805" y="618.287" type="curve"/>
			<point x="61.81" y="155.186" type="line"/>
			<point x="56.758" y="124.867"/>
			<point x="54.583" y="70.496"/>
			<point x="51.956" y="38.82" type="curve"/>
			<point x="75.729" y="27.745"/>
			<point x="212.135" y="-11.023"/>
			<point x="255.617" y="-11.023" type="curve" smooth="yes"/>
			<point x="449.597" y="-11.023"/>
			<point x="534.999" y="132.025"/>
			<point x="534.999" y="321" type="curve" smooth="yes"/>
			<point x="534.999" y="483.532"/>
			<point x="438.863" y="600"/>
			<point x="338.999" y="600" type="curve" smooth="yes"/>
			<point x="285.54" y="600"/>
			<point x="180.541" y="557.617"/>
			<point x="145.727" y="533.617" type="curve"/>
			<point x="162.56" y="452.79" type="line"/>
			<point x="190.508" y="470.711"/>
			<point x="266.999" y="513"/>
			<point x="298.829" y="513" type="curve" smooth="yes"/>
			<point x="335.918" y="513"/>
			<point x="403.999" y="478.171"/>
			<point x="403.999" y="293" type="curve" smooth="yes"/>
			<point x="403.999" y="123.91"/>
			<point x="343.481" y="73"/>
			<point x="272.973" y="73" type="curve" smooth="yes"/>
			<point x="243.31" y="73"/>
			<point x="216.135" y="78"/>
			<point x="193.999" y="83" type="curve"/>
			<point x="193.999" y="813" type="line"/>
			<point x="189.145" y="816.985"/>
			<point x="149.934" y="828.564"/>
			<point x="139.018" y="828.484" type="curve" smooth="yes"/>
			<point x="128.368" y="828.406"/>
			<point x="40.857" y="789.867"/>
		</contour>
	</outline>
</glyph>
<glyph name="g" format="2">
	<advance width="582.52"/>
	<unicode hex="0067"/>
	<outline>
		<contour>
			<point x="527.517" y="584.92" type="curve"/>
			<point x="522.663" y="588.905"/>
			<point x="485.246" y="600"/>
			<point x="474.33" y="599.92" type="curve" smooth="yes"/>
			<point x="463.68" y="599.842"/>
			<point x="386.088" y="564.124"/>
			<point x="380.23" y="554.092" type="curve"/>
			<point x="380.23" y="85.741" type="line"/>
			<point x="387.515" y="32.076"/>
			<point x="388.337" y="-10.938"/>
			<point x="388.337" y="-40.4" type="curve" smooth="yes"/>
			<point x="388.337" y="-70.681"/>
			<point x="352.017" y="-120.64"/>
			<point x="301.951" y="-120.64" type="curve" smooth="yes"/>
			<point x="233.23" y="-120.64"/>
			<point x="137.57" y="-81.773"/>
			<point x="105.321" y="-68.206" type="curve"/>
			<point x="60.369" y="-139.701" type="line"/>
			<point x="89.724" y="-156.682"/>
			<point x="240.854" y="-215.538"/>
			<point x="289.433" y="-215.538" type="curve" smooth="yes"/>
			<point x="327.377" y="-215.538"/>
			<point x="437.742" y="-197.668"/>
			<point x="446.369" y="-191.701" type="curve" smooth="yes"/>
			<point x="455.142" y="-185.634"/>
			<point x="520.369" y="-114.169"/>
			<point x="520.416" y="-91.053" type="curve"/>
			<point x="514.654" y="-31.723"/>
			<point x="515.943" y="33.37"/>
			<point x="513.61" y="74.413" type="curve"/>
			<point x="513.61" y="399.793" type="line"/>
			<point x="514.974" y="458.724"/>
			<point x="526.89" y="553.244"/>
		</contour>
		<contour>
			<point x="240.89" y="-11" type="curve" smooth="yes"/>
			<point x="303.693" y="-11"/>
			<point x="406.966" y="44.438"/>
			<point x="422.682" y="59.647" type="curve"/>
			<point x="397.682" y="115.273" type="line"/>
			<point x="364.521" y="93.273"/>
			<point x="311.29" y="73"/>
			<point x="277.854" y="73" type="curve" smooth="yes"/>
			<point x="216.854" y="73"/>
			<point x="169.854" y="132"/>
			<point x="169.854" y="300" type="curve" smooth="yes"/>
			<point x="169.854" y="462"/>
			<point x="237.854" y="513"/>
			<point x="276.854" y="513" type="curve" smooth="yes"/>
			<point x="310.854" y="513"/>
			<point x="390.461" y="485.829"/>
			<point x="410.461" y="472.829" type="curve"/>
			<point x="435.461" y="531.599" type="line"/>
			<point x="412.461" y="548.599"/>
			<point x="308.854" y="600"/>
			<point x="238.854" y="600" type="curve" smooth="yes"/>
			<point x="129.854" y="600"/>
			<point x="39.999" y="466"/>
			<point x="39.999" y="308" type="curve" smooth="yes"/>
			<point x="39.999" y="84.741"/>
			<point x="150.588" y="-11"/>
		</contour>
	</outline>
</glyph>
<glyph name="i" format="2">
	<advance width="276.24"/>
	<unicode hex="0069"/>
	<outline>
		<contour>
			<point x="138.122" y="671.965" type="curve" smooth="yes"/>
			<point x="184.028" y="671.965"/>
			<point x="221.242" y="703.788"/>
			<point x="221.242" y="749.212" type="curve" smooth="yes"/>
			<point x="221.242" y="794.636"/>
			<point x="184.028" y="826.458"/>
			<point x="138.122" y="826.458" type="curve" smooth="yes"/>
			<point x="92.216" y="826.458"/>
			<point x="55.001" y="794.636"/>
			<point x="55.001" y="749.212" type="curve" smooth="yes"/>
			<point x="55.001" y="703.788"/>
			<point x="92.216" y="671.965"/>
		</contour>
		<contour>
			<point x="72.856" y="0.413" type="curve"/>
			<point x="217.095" y="0.413" type="line"/>
			<point x="217.432" y="584.92" type="line"/>
			<point x="212.578" y="588.905"/>
			<point x="175.161" y="600"/>
			<point x="164.245" y="599.92" type="curve" smooth="yes"/>
			<point x="153.595" y="599.842"/>
			<point x="64.29" y="563.034"/>
			<point x="58.432" y="556.92" type="curve"/>
			<point x="67.856" y="525.547"/>
			<point x="80.293" y="439.311"/>
			<point x="82.705" y="398.287" type="curve"/>
			<point x="82.71" y="116.779" type="line"/>
			<point x="82.703" y="93.745"/>
			<point x="75.349" y="17.468"/>
		</contour>
	</outline>
</glyph>
<glyph name="j" format="2">
	<advance width="325.45"/>
	<unicode hex="006A"/>
	<outline>
		<contour>
			<point x="270.452" y="749.212" type="curve" smooth="yes"/>
			<point x="270.452" y="703.788"/>
			<point x="233.238" y="671.965"/>
			<point x="187.332" y="671.965" type="curve" smooth="yes"/>
			<point x="141.426" y="671.965"/>
			<point x="104.211" y="703.788"/>
			<point x="104.211" y="749.212" type="curve" smooth="yes"/>
			<point x="104.211" y="794.636"/>
			<point x="141.426" y="826.458"/>
			<point x="187.332" y="826.458" type="curve" smooth="yes"/>
			<point x="233.238" y="826.458"/>
			<point x="270.452" y="794.636"/>
		</contour>
		<contour>
			<point x="257.788" y="-58.276" type="curve"/>
			<point x="252.026" y="1.054"/>
			<point x="249.495" y="33.37"/>
			<point x="247.162" y="74.413" type="curve"/>
			<point x="247.162" y="399.793" type="line"/>
			<point x="248.526" y="458.724"/>
			<point x="262.015" y="553.244"/>
			<point x="262.642" y="584.92" type="curve"/>
			<point x="257.788" y="588.905"/>
			<point x="210.371" y="600"/>
			<point x="199.455" y="599.92" type="curve" smooth="yes"/>
			<point x="188.805" y="599.842"/>
			<point x="122.5" y="569.034"/>
			<point x="116.642" y="562.92" type="curve"/>
			<point x="118.202" y="-31.918" type="line"/>
			<point x="118.202" y="-49.135"/>
			<point x="115.149" y="-90.064"/>
			<point x="105.404" y="-106.863" type="curve" smooth="yes"/>
			<point x="92.211" y="-129.605"/>
			<point x="47.079" y="-157.242"/>
			<point x="19.999" y="-159.868" type="curve"/>
			<point x="51.203" y="-217.148" type="line"/>
			<point x="81.254" y="-214.887"/>
			<point x="175.123" y="-167.495"/>
			<point x="188.805" y="-157.242" type="curve"/>
			<point x="202.053" y="-143.943"/>
			<point x="247.162" y="-94.415"/>
		</contour>
	</outline>
</glyph>
<glyph name="k" format="2">
	<advance width="595.62"/>
	<unicode hex="006B"/>
	<outline>
		<contour>
			<point x="55.001" y="784.92" type="curve"/>
			<point x="60.995" y="790.787"/>
			<point x="149.618" y="828"/>
			<point x="160.62" y="828" type="curve" smooth="yes"/>
			<point x="171.62" y="828"/>
			<point x="208.62" y="817"/>
			<point x="213.62" y="813" type="curve"/>
			<point x="213.62" y="0" type="line"/>
			<point x="69.62" y="0" type="line"/>
			<point x="72.086" y="17.091"/>
			<point x="79.386" y="93.463"/>
			<point x="79.279" y="116.779" type="curve"/>
			<point x="79.268" y="618.287" type="line"/>
			<point x="76.862" y="667.311"/>
			<point x="64.425" y="753.547"/>
		</contour>
		<contour>
			<point x="560.62" y="0" type="curve"/>
			<point x="409.62" y="0" type="line"/>
			<point x="269.62" y="240" type="line"/>
			<point x="340.62" y="364" type="line"/>
			<point x="381.097" y="269.494"/>
			<point x="444.097" y="175.494"/>
		</contour>
		<contour>
			<point x="394.334" y="589" type="curve"/>
			<point x="408.334" y="593"/>
			<point x="491.867" y="600"/>
			<point x="500.177" y="600" type="curve" smooth="yes"/>
			<point x="508.209" y="600"/>
			<point x="534.046" y="572.976"/>
			<point x="541.334" y="565" type="curve"/>
			<point x="171.62" y="110" type="line"/>
			<point x="171.62" y="260" type="line"/>
			<point x="268.299" y="390.839" type="line"/>
			<point x="312.692" y="448.632"/>
			<point x="352.227" y="509.121"/>
		</contour>
	</outline>
</glyph>
<glyph name="r" format="2">
	<advance width="480.03"/>
	<unicode hex="0072"/>
	<outline>
		<contour>
			<point x="197.527" y="353.778" type="curve"/>
			<point x="171.651" y="400.246" type="line"/>
			<point x="191.51" y="433.762"/>
			<point x="317.188" y="599.917"/>
			<point x="350.257" y="599.917" type="curve" smooth="yes"/>
			<point x="369.795" y="599.917"/>
			<point x="456.162" y="585.603"/>
			<point x="465.03" y="580" type="curve"/>
			<point x="454.617" y="545.681"/>
			<point x="444.204" y="488.615"/>
			<point x="441.632" y="450.225" type="curve"/>
			<point x="401.901" y="460.763"/>
			<point x="360.512" y="466.708"/>
			<point x="341.581" y="466.708" type="curve"/>
			<point x="289.009" y="466.708"/>
			<point x="216.068" y="382.515"/>
		</contour>
		<contour>
			<point x="69.424" y="0.413" type="line"/>
			<point x="71.917" y="17.468"/>
			<point x="79.271" y="93.745"/>
			<point x="79.278" y="116.779" type="curve"/>
			<point x="79.273" y="398.287" type="line"/>
			<point x="76.861" y="439.311"/>
			<point x="64.424" y="525.547"/>
			<point x="55" y="556.92" type="curve"/>
			<point x="60.858" y="563.034"/>
			<point x="150.163" y="599.842"/>
			<point x="160.813" y="599.92" type="curve" smooth="yes"/>
			<point x="171.729" y="600"/>
			<point x="209.146" y="588.905"/>
			<point x="214" y="584.92" type="curve"/>
			<point x="213.663" y="0.413" type="line"/>
		</contour>
	</outline>
</glyph>
<glyph name="t" format="2">
	<advance width="409.36"/>
	<unicode hex="0074"/>
	<outline>
		<contour>
			<point x="35.003" y="512.179" type="line"/>
			<point x="125.003" y="512.179"/>
			<point x="268.98" y="512.179"/>
			<point x="358.98" y="512.179" type="curve"/>
			<point x="358.98" y="600.179" type="line"/>
			<point x="337.053" y="598.954"/>
			<point x="267.934" y="596.115"/>
			<point x="202.018" y="596.115" type="curve" smooth="yes"/>
			<point x="110.187" y="596.115"/>
			<point x="70.517" y="589.343"/>
			<point x="35.003" y="576.851" type="curve"/>
		</contour>
		<contour>
			<point x="73.517" y="719.488" type="curve"/>
			<point x="83.838" y="685.964"/>
			<point x="103.941" y="580.843"/>
			<point x="97.113" y="541.266" type="curve"/>
			<point x="97.113" y="153.562" type="line"/>
			<point x="94.696" y="128.224"/>
			<point x="91.713" y="106.66"/>
			<point x="89.084" y="85.962" type="curve"/>
			<point x="89.084" y="56.733"/>
			<point x="147.755" y="7.836"/>
			<point x="161.003" y="-1.783" type="curve"/>
			<point x="174.685" y="-7.961"/>
			<point x="240.677" y="-11.86"/>
			<point x="263.85" y="-10.606" type="curve" smooth="yes"/>
			<point x="330.793" y="-6.983"/>
			<point x="382.186" y="20.592"/>
			<point x="399.36" y="33.391" type="curve"/>
			<point x="367.944" y="93.142" type="line"/>
			<point x="339.247" y="80.253"/>
			<point x="306.89" y="75.616"/>
			<point x="288.901" y="75.616" type="curve"/>
			<point x="233.539" y="78.701"/>
			<point x="228.519" y="102.368"/>
			<point x="228.519" y="165.816" type="curve"/>
			<point x="228.677" y="745.984" type="line"/>
			<point x="223.823" y="749.969"/>
			<point x="184.406" y="761.064"/>
			<point x="173.49" y="760.984" type="curve" smooth="yes"/>
			<point x="162.84" y="760.906"/>
			<point x="79.375" y="725.602"/>
		</contour>
	</outline>
</glyph>
<glyph name="u" format="2">
	<advance width="573.81"/>
	<unicode hex="0075"/>
	<outline>
		<contour>
			<point x="201" y="585" type="line"/>
			<point x="186" y="593"/>
			<point x="157" y="600"/>
			<point x="148" y="600" type="curve" smooth="yes"/>
			<point x="138" y="600"/>
			<point x="81" y="574"/>
			<point x="45" y="553" type="curve"/>
			<point x="54.977" y="501.828"/>
			<point x="64" y="437.18"/>
			<point x="64" y="405.539" type="curve" smooth="yes"/>
			<point x="64" y="337.098"/>
			<point x="64" y="110.755"/>
			<point x="64" y="92" type="curve" smooth="yes"/>
			<point x="64" y="72"/>
			<point x="134" y="39"/>
			<point x="143" y="33" type="curve" smooth="yes"/>
			<point x="151" y="27"/>
			<point x="216" y="-11"/>
			<point x="236" y="-11" type="curve" smooth="yes"/>
			<point x="269" y="-11"/>
			<point x="402" y="81"/>
			<point x="420" y="94" type="curve"/>
			<point x="393" y="143" type="line"/>
			<point x="386" y="134"/>
			<point x="311" y="76"/>
			<point x="270" y="76" type="curve" smooth="yes"/>
			<point x="224" y="76"/>
			<point x="201" y="114.883"/>
			<point x="201" y="163" type="curve" smooth="yes"/>
		</contour>
		<contour>
			<point x="417" y="0" type="line"/>
			<point x="518.812" y="0" type="line"/>
			<point x="508.797" y="34.078"/>
			<point x="499.84" y="104.238"/>
			<point x="499.84" y="159.888" type="curve" smooth="yes"/>
			<point x="499.84" y="236.277"/>
			<point x="499.84" y="342.662"/>
			<point x="499.84" y="399.793" type="curve" smooth="yes"/>
			<point x="499.84" y="452.823"/>
			<point x="499.207" y="556.891"/>
			<point x="503.812" y="585" type="curve"/>
			<point x="498.812" y="589"/>
			<point x="463.045" y="602"/>
			<point x="452" y="602" type="curve" smooth="yes"/>
			<point x="441" y="602"/>
			<point x="366.367" y="565.891"/>
			<point x="360.367" y="559.891" type="curve"/>
			<point x="361" y="86" type="line"/>
		</contour>
	</outline>
</glyph>
<glyph name="w" format="2">
	<advance width="821.94"/>
	<unicode hex="0077"/>
	<outline>
		<contour>
			<point x="256.192" y="-10.95" type="curve" smooth="yes"/>
			<point x="352.283" y="-10.95"/>
			<point x="483.919" y="129.7"/>
			<point x="483.962" y="200.363" type="curve" smooth="yes"/>
			<point x="484.184" y="585.034" type="line"/>
			<point x="479.33" y="589.019"/>
			<point x="441.913" y="600.114"/>
			<point x="430.997" y="600.034" type="curve" smooth="yes"/>
			<point x="420.347" y="599.956"/>
			<point x="334.042" y="559.148"/>
			<point x="328.184" y="553.034" type="curve"/>
			<point x="347.909" y="491.5"/>
			<point x="356.445" y="434.395"/>
			<point x="356.445" y="399.793" type="curve" smooth="yes"/>
			<point x="356.445" y="155.186"/>
			<point x="330.92168" y="72.957"/>
			<point x="292.483" y="72.957" type="curve" smooth="yes"/>
			<point x="199.31969" y="72.957"/>
			<point x="190.545" y="124.501"/>
			<point x="190.62" y="197.213" type="curve" smooth="yes"/>
			<point x="190.997" y="584.996" type="line"/>
			<point x="186.143" y="588.981"/>
			<point x="148.726" y="600.076"/>
			<point x="137.81" y="599.996" type="curve" smooth="yes"/>
			<point x="127.16" y="599.918"/>
			<point x="40.855" y="559.11"/>
			<point x="34.997" y="552.996" type="curve"/>
			<point x="46.555" y="496.525"/>
			<point x="54.552" y="429.703"/>
			<point x="54.625" y="399.402" type="curve" smooth="yes"/>
			<point x="54.817" y="319.239"/>
			<point x="54" y="123.753"/>
			<point x="54" y="92" type="curve"/>
			<point x="84.45" y="54.547"/>
			<point x="201.498" y="-10.95"/>
		</contour>
		<contour>
			<point x="483.381" y="197.213" type="curve"/>
			<point x="378.892" y="107.471" type="line"/>
			<point x="418.342" y="38.44"/>
			<point x="515.299" y="-10.95"/>
			<point x="545.953" y="-10.95" type="curve" smooth="yes"/>
			<point x="652.044" y="-10.95"/>
			<point x="776.68" y="124.7"/>
			<point x="776.723" y="200.363" type="curve" smooth="yes"/>
			<point x="776.945" y="585.034" type="line"/>
			<point x="772.091" y="589.019"/>
			<point x="734.674" y="600.114"/>
			<point x="723.758" y="600.034" type="curve" smooth="yes"/>
			<point x="713.108" y="599.956"/>
			<point x="626.803" y="559.148"/>
			<point x="620.945" y="553.034" type="curve"/>
			<point x="640.67" y="496.563"/>
			<point x="649.206" y="439.574"/>
			<point x="649.206" y="399.793" type="curve" smooth="yes"/>
			<point x="649.206" y="155.186"/>
			<point x="620.683" y="72.957"/>
			<point x="582.244" y="72.957" type="curve" smooth="yes"/>
			<point x="502.81188" y="72.957"/>
			<point x="483.306" y="119.595"/>
		</contour>
	</outline>
</glyph>
<glyph name="z" format="2">
	<advance width="529"/>
	<unicode hex="007A"/>
	<outline>
		<contour>
			<point x="158.5278" y="67.43583" type="line"/>
			<point x="50" y="79" type="line"/>
			<point x="353.78781" y="488.92415" type="line"/>
			<point x="420" y="549" type="line"/>
			<point x="479" y="508" type="line"/>
			<point x="395.05993" y="390.68005"/>
			<point x="259" y="190.69142"/>
			<point x="238.55614" y="162.02802" type="curve"/>
		</contour>
		<contour>
			<point x="479" y="0" type="line"/>
			<point x="50" y="0" type="line"/>
			<point x="50" y="79" type="line"/>
			<point x="135.42369" y="79"/>
			<point x="210" y="88"/>
			<point x="281" y="88" type="curve" smooth="yes"/>
			<point x="315.72551" y="88"/>
			<point x="412.49984" y="90"/>
			<point x="479" y="94" type="curve"/>
		</contour>
		<contour>
			<point x="479" y="580" type="curve"/>
			<point x="479" y="508" type="line"/>
			<point x="409" y="512"/>
			<point x="311" y="512"/>
			<point x="261" y="512" type="curve" smooth="yes"/>
			<point x="213" y="512"/>
			<point x="118" y="510"/>
			<point x="50" y="506" type="curve"/>
			<point x="50" y="600" type="line"/>
			<point x="190" y="600"/>
			<point x="336" y="600"/>
			<point x="393" y="600" type="curve" smooth="yes"/>
			<point x="415" y="600"/>
			<point x="445" y="591"/>
		</contour>
	</outline>
</glyph>
<glyph name="acute" format="2">
	<advance width="174.41"/>
	<unicode hex="00B4"/>
	<outline>
		<contour>
			<point x="-43.601" y="727.891" type="line"/>
			<point x="8.176" y="766.109"/>
			<point x="112.355" y="845.719"/>
			<point x="167.907" y="919.495" type="curve"/>
			<point x="190.034" y="901.562"/>
			<point x="225.984" y="867.317"/>
			<point x="228.493" y="862.981" type="curve"/>
			<point x="231.12" y="860.147"/>
			<point x="233.73" y="816.549"/>
			<point x="231.654" y="811.196" type="curve"/>
			<point x="215.23" y="799.243"/>
			<point x="49.793" y="720.748"/>
			<point x="-20.716" y="668.595" type="curve"/>
		</contour>
	</outline>
</glyph>
